<svg width="17" height="17" viewBox="0 0 17 17" fill="none" xmlns="http://www.w3.org/2000/svg">
<path d="M15.5059 8.03516H1.49436C0.670473 8.03516 0.000244141 8.70538 0.000244141 9.52928V15.5058C0.000244141 16.3296 0.670473 16.9999 1.49436 16.9999H15.5059C16.3298 16.9999 17 16.3296 17 15.5058V9.52928C17 8.70538 16.3298 8.03516 15.5059 8.03516ZM4.5158 15.0077H2.52365C2.24836 15.0077 2.02561 14.785 2.02561 14.5097V10.5254C2.02561 10.2501 2.24836 10.0273 2.52365 10.0273C2.79893 10.0273 3.02169 10.2501 3.02169 10.5254V14.0116H4.5158C4.79109 14.0116 5.01384 14.2344 5.01384 14.5097C5.01384 14.785 4.79109 15.0077 4.5158 15.0077ZM7.006 14.5097C7.006 14.785 6.78325 15.0077 6.50796 15.0077C6.23268 15.0077 6.00992 14.785 6.00992 14.5097V10.5254C6.00992 10.2501 6.23268 10.0273 6.50796 10.0273C6.78325 10.0273 7.006 10.2501 7.006 10.5254V14.5097ZM10.9752 10.646L9.97917 14.6303C9.92372 14.8521 9.7248 15.0077 9.4962 15.0077C9.2676 15.0077 9.06868 14.8521 9.01324 14.6303L8.01716 10.646C7.95005 10.3795 8.11248 10.109 8.3795 10.0424C8.64555 9.97333 8.91645 10.1377 8.98309 10.4047L9.4962 12.4563L10.0093 10.4048C10.0755 10.1377 10.3459 9.97286 10.6129 10.0424C10.8799 10.109 11.0424 10.3795 10.9752 10.646V10.646ZM14.4766 12.0195C14.7519 12.0195 14.9746 12.2422 14.9746 12.5175C14.9746 12.7928 14.7519 13.0156 14.4766 13.0156H12.9825V14.0116H14.4766C14.7519 14.0116 14.9746 14.2344 14.9746 14.5097C14.9746 14.785 14.7519 15.0077 14.4766 15.0077H12.4844C12.2092 15.0077 11.9864 14.785 11.9864 14.5097V10.5254C11.9864 10.2501 12.2092 10.0273 12.4844 10.0273H14.4766C14.7519 10.0273 14.9746 10.2501 14.9746 10.5254C14.9746 10.8006 14.7519 11.0234 14.4766 11.0234H12.9825V12.0195H14.4766Z" fill="#D00136"/>
<path d="M4.117 6.77365C2.66372 4.8379 2.66372 2.13468 4.117 0.19893C4.28188 -0.0204064 4.59462 -0.0656616 4.81445 0.0997208C5.03429 0.265103 5.07855 0.577341 4.91366 0.797176C3.72451 2.38031 3.72451 4.5923 4.91366 6.17541C5.07855 6.39524 5.03429 6.70748 4.81445 6.87286C4.59555 7.03708 4.28268 6.99452 4.117 6.77365Z" fill="#D00136"/>
<path d="M12.1858 6.87314C11.966 6.70779 11.9217 6.39552 12.0866 6.17568C13.2757 4.59255 13.2757 2.38055 12.0866 0.79745C11.9217 0.577615 11.966 0.265378 12.1858 0.0999952C12.4056 -0.0648891 12.7189 -0.020132 12.8833 0.199205C14.3365 2.13495 14.3365 4.83818 12.8833 6.77393C12.7178 6.99446 12.4051 7.03762 12.1858 6.87314Z" fill="#D00136"/>
<path d="M5.90146 5.81066C4.71473 4.48581 4.71473 2.48685 5.90146 1.16196C6.0853 0.957201 6.40146 0.940666 6.60476 1.12305C6.80952 1.30639 6.82702 1.62159 6.64367 1.82635C5.79641 2.77282 5.79641 4.1998 6.64367 5.14628C6.82702 5.35104 6.80952 5.6662 6.60476 5.84958C6.4007 6.03269 6.085 6.01602 5.90146 5.81066Z" fill="#D00136"/>
<path d="M10.3955 5.84946C10.1907 5.66612 10.1732 5.35092 10.3566 5.14616C11.2039 4.19969 11.2039 2.7727 10.3566 1.82623C10.1732 1.62147 10.1907 1.30631 10.3955 1.12293C10.5998 0.940051 10.9154 0.956586 11.0988 1.16184C12.2855 2.4867 12.2855 4.48566 11.0988 5.81055C10.9153 6.01584 10.5996 6.03261 10.3955 5.84946Z" fill="#D00136"/>
<path d="M8.5001 4.98043C7.67621 4.98043 7.00598 4.3102 7.00598 3.48631C7.00598 2.66242 7.67621 1.99219 8.5001 1.99219C9.32399 1.99219 9.99422 2.66242 9.99422 3.48631C9.99422 4.3102 9.32402 4.98043 8.5001 4.98043Z" fill="#D00136"/>
</svg>
