<svg width="17" height="9" viewBox="0 0 17 9" fill="none" xmlns="http://www.w3.org/2000/svg">
<path d="M16.2917 0.568017C15.8629 0.404296 15.3694 0.494726 15.0411 0.797322L12.8551 2.81301V1.58443C12.8551 0.709513 12.0856 0 11.1365 0H1.7186C0.769513 0 0 0.709513 0 1.58443V7.41557C0 8.29049 0.769513 9 1.7186 9H11.1365C12.0856 9 12.8551 8.29049 12.8551 7.41557V6.18695L15.0411 8.20264C15.2609 8.4051 15.5542 8.51271 15.8529 8.51271C16.0006 8.51271 16.1498 8.48618 16.2917 8.43198C16.7203 8.26822 17 7.88251 17 7.45458V1.54538C17 1.11745 16.7203 0.731739 16.2917 0.568017ZM8.07707 4.91048L5.73466 6.56973C5.63475 6.64063 5.51396 6.67687 5.39258 6.67687C5.30807 6.67687 5.22323 6.65934 5.14446 6.62353C4.95267 6.53643 4.83124 6.35647 4.83124 6.15925V2.84071C4.83124 2.64346 4.95267 2.46353 5.14446 2.37647C5.33634 2.28929 5.5651 2.3101 5.73462 2.43027L8.07702 4.08948C8.21538 4.18747 8.29645 4.33917 8.29645 4.49996C8.29649 4.66079 8.21543 4.8125 8.07707 4.91048Z" fill="#808080"/>
</svg>
