<svg width="15" height="15" viewBox="0 0 15 15" fill="none" xmlns="http://www.w3.org/2000/svg">
<path d="M7.5 0C3.3643 0 0 3.3643 0 7.5C0 11.6357 3.3643 15 7.5 15C11.6357 15 15 11.6357 15 7.5C15 3.3643 11.6357 0 7.5 0ZM2.68248 12.5365C1.35368 11.2674 0.527538 9.48076 0.527538 7.5C0.527538 7.46019 0.527538 7.41539 0.532515 7.37558L2.47346 8.04247L3.83212 11.5511L2.68248 12.5365ZM4.27505 2.24453L7.80358 0.975448L10.3268 3.33444L8.25149 6.30557L4.39449 5.57399L4.27505 2.24453ZM12.1583 12.6858C12.0139 12.8152 11.8597 12.9446 11.7054 13.0591L8.80392 14.2983L6.90279 12.3175L9.36629 9.54545L12.6609 9.94857L12.1583 12.6858ZM13.0889 3.32946C13.9599 4.49403 14.4774 5.93729 14.4774 7.5C14.4774 7.53981 14.4725 7.58461 14.4725 7.62442L14.0793 7.52488L12.8948 4.18049L13.0889 3.32946Z" fill="#808080"/>
</svg>
