<svg width="5" height="9" viewBox="0 0 5 9" fill="none" xmlns="http://www.w3.org/2000/svg">
<path d="M3.32065 4.49817L0.13663 7.86585C0.0484253 7.95915 -8.73395e-07 8.08171 -8.84909e-07 8.21341C-8.96423e-07 8.34512 0.0484252 8.46951 0.13663 8.56098L0.41508 8.85549C0.503285 8.94878 0.620892 9 0.745416 9C0.86994 9 0.987547 8.94878 1.07402 8.85549L4.8651 4.84756C4.95157 4.75427 5 4.62988 5 4.49817C5 4.36646 4.95157 4.24207 4.8651 4.14878L1.07921 0.144512C0.991007 0.0512196 0.87513 -3.60608e-07 0.750605 -3.71494e-07C0.626081 -3.8238e-07 0.508474 0.0512195 0.421999 0.144512L0.14009 0.439025C-0.0415084 0.631097 -0.0415084 0.943903 0.14009 1.13598L3.32065 4.49817Z" fill="#D10136"/>
</svg>
